
      <svg data-logo="logo" xmlns="http://www.w3.org/2000/svg" viewBox="0 0 276 46">
        <g id="logogram" transform="translate(0, 2.5) rotate(0)"><path d="M18.529 14.2867C19.7573 13.9362 19.8794 10.5388 18.8016 6.69839C17.7239 2.85797 15.8544 0.0288177 14.6261 0.379292C13.3977 0.729766 13.2757 4.12714 14.3534 7.96759C15.4312 11.8079 17.3007 14.6371 18.529 14.2867Z" fill="black"/><path d="M26.1248 8.08707C27.2775 4.26882 27.2219 0.869674 26.0007 0.49485C24.7794 0.120017 22.855 2.91144 21.7023 6.72968C20.5497 10.5479 20.6052 13.9471 21.8265 14.3219C23.0477 14.6967 24.9722 11.9053 26.1248 8.08707Z" fill="black"/><path d="M15.7317 16.0579C16.5771 15.0934 14.858 12.1689 11.8921 9.5258C8.92614 6.88272 5.83646 5.52194 4.99109 6.48642C4.14571 7.45092 5.86478 10.3754 8.83075 13.0185C11.7967 15.6616 14.8864 17.0224 15.7317 16.0579Z" fill="black"/><path d="M31.5523 13.2463C34.5689 10.6622 36.3444 7.77208 35.5178 6.79115C34.6913 5.81019 31.5758 7.10985 28.5592 9.6939C25.5426 12.278 23.7672 15.1681 24.5937 16.1491C25.4202 17.13 28.5357 15.8304 31.5523 13.2463Z" fill="black"/><path d="M14.3271 19.0886C14.5213 17.8164 11.5072 16.2928 7.5951 15.6857C3.68285 15.0785 0.353953 15.6177 0.15976 16.8899C-0.0344332 18.1621 2.97961 19.6855 6.89183 20.2927C10.804 20.8999 14.1329 20.3607 14.3271 19.0886Z" fill="black"/><path d="M33.3469 20.5473C37.2702 20.018 40.3134 18.5548 40.1441 17.2789C39.9749 16.0031 36.6572 15.398 32.7338 15.9271C28.8106 16.4564 25.7673 17.9197 25.9366 19.1955C26.1059 20.4713 29.4235 21.0765 33.3469 20.5473Z" fill="black"/><path d="M9.1521 27.4532C12.7688 25.8311 15.28 23.5628 14.7611 22.3867C14.2424 21.2106 10.89 21.5722 7.2733 23.1943C3.65667 24.8164 1.1454 27.0847 1.66421 28.2608C2.18302 29.4369 5.53546 29.0753 9.1521 27.4532Z" fill="black"/><path d="M38.408 28.6255C38.9497 27.46 36.4833 25.1421 32.8991 23.4484C29.3149 21.7547 25.9702 21.3266 25.4285 22.4921C24.8868 23.6577 27.3532 25.9755 30.9374 27.6692C34.5215 29.3629 37.8663 29.7911 38.408 28.6255Z" fill="black"/><path d="M14.9029 32.2399C17.0755 28.9036 17.9717 25.6262 16.9047 24.9198C15.8375 24.2133 13.2112 26.3451 11.0387 29.6814C8.86604 33.0177 7.96985 36.2949 9.03689 37.0015C10.104 37.708 12.7302 35.5762 14.9029 32.2399Z" fill="black"/><path d="M30.8687 37.2253C31.9494 36.5402 31.1175 33.2456 29.0106 29.8668C26.9036 26.488 24.3195 24.3044 23.2388 24.9895C22.1582 25.6746 22.9901 28.9692 25.097 32.348C27.2039 35.7268 29.7881 37.9105 30.8687 37.2253Z" fill="black"/><path d="M22.3061 33.1463C22.3448 29.1553 21.3414 25.9098 20.0649 25.8972C18.7884 25.8846 17.7222 29.1098 17.6835 33.1007C17.6448 37.0918 18.6483 40.3374 19.9247 40.3499C21.2013 40.3625 22.2675 37.1374 22.3061 33.1463Z" fill="black"/></g>
        <g id="logotype" transform="translate(44, 1)"><path fill="#111111" d="M15.64 34.34L18.12 34.34L15.57 26.77L8.64 26.77L5.94 34.34L8.57 34.34L8.57 35L3.21 35L3.21 34.34L4.86 34.34L13.78 10.29L16.65 10.29L25.47 34.34L27.08 34.34L27.08 35L15.64 35L15.64 34.34ZM15.29 26.00L12.24 16.83L8.95 26.00L15.29 26.00ZM28.17 11.16L28.17 10.50L38.84 10.50L38.84 11.16L36.92 11.16L36.92 34.34L38.84 34.34L38.84 35L28.17 35L28.17 34.34L30.09 34.34L30.09 11.16L28.17 11.16ZM57.22 37.41L57.22 38.71L39.72 38.71L39.72 37.41L57.22 37.41ZM72.20 28.52L76.40 10.50L85.74 10.50L85.74 11.16L83.81 11.16L83.81 34.34L85.74 34.34L85.74 35L75.06 35L75.06 34.34L76.99 34.34L76.99 12.46L76.85 12.46L71.60 35L67.23 35L61.07 12.35L60.93 12.35L60.93 34.34L62.85 34.34L62.85 35L58.09 35L58.09 34.34L60.02 34.34L60.02 11.16L58.09 11.16L58.09 10.50L67.54 10.50L72.20 28.52ZM96.17 35.35Q91.66 35.35 89.40 33.02Q87.14 30.70 87.14 26.55Q87.14 22.40 89.68 20.20Q92.22 17.99 96.14 17.99L96.14 17.99Q104.08 17.99 103.77 25.97L103.77 25.97L93.90 25.97L93.90 27.34Q93.90 30.77 94.77 32.52Q95.65 34.27 97.82 34.27L97.82 34.27Q101.88 34.27 103.14 29.93L103.14 29.93L103.77 30.03Q103.10 32.55 101.37 33.95Q99.64 35.35 96.17 35.35L96.17 35.35ZM93.93 23.55L93.93 25.27L97.54 25.27L97.54 23.55Q97.54 20.72 97.20 19.69Q96.87 18.65 95.87 18.65Q94.88 18.65 94.40 19.76Q93.93 20.86 93.93 23.55L93.93 23.55ZM112.13 27.75Q112.13 31.43 112.52 32.64Q112.90 33.84 113.93 33.84Q114.97 33.84 115.72 32.94Q116.47 32.02 116.47 30.24L116.47 30.24L116.47 22.61Q116.47 21.10 115.88 20.05Q115.28 19.00 114.13 19.00Q112.97 19.00 112.55 20.54Q112.13 22.09 112.13 25.93L112.13 25.93L112.13 27.75ZM124.70 35L116.93 35L116.54 32.55Q115.35 35.35 111.71 35.35L111.71 35.35Q108.70 35.35 107.04 33.18Q105.38 31.01 105.38 26.70L105.38 26.70Q105.38 17.99 112.31 17.99L112.31 17.99Q115.39 17.99 116.37 19.70L116.37 19.70L116.37 9.38L114.23 9.38L114.23 8.75L122.98 8.75L122.98 34.37L124.70 34.37L124.70 35ZM130.75 15.92Q128.90 15.92 128.11 14.98Q127.32 14.03 127.32 12.63Q127.32 11.23 128.18 10.32Q129.03 9.41 130.78 9.41Q132.54 9.41 133.45 10.24Q134.36 11.06 134.36 12.58Q134.36 14.10 133.48 15.01Q132.61 15.92 130.75 15.92ZM125.47 18.97L125.47 18.34L134.04 18.34L134.04 34.37L136 34.37L136 35L125.61 35L125.61 34.37L127.53 34.37L127.53 18.97L125.47 18.97ZM148.99 34.34L151.47 34.34L148.92 26.77L141.99 26.77L139.29 34.34L141.92 34.34L141.92 35L136.56 35L136.56 34.34L138.21 34.34L147.13 10.29L150.00 10.29L158.82 34.34L160.43 34.34L160.43 35L148.99 35L148.99 34.34ZM148.64 26.00L145.59 16.83L142.30 26.00L148.64 26.00ZM175.03 16.52L175.03 16.52L176.01 15.92Q176.22 14.84 175.17 14.84L175.17 14.84Q173.66 14.84 173.66 17.15L173.66 17.15Q173.66 18.06 173.91 19.25L173.91 19.25Q176.57 21.03 176.57 23.82Q176.57 26.60 174.64 28.14Q172.72 29.68 169.43 29.68L169.43 29.68Q168.06 29.68 166.59 29.40L166.59 29.40Q165.05 30.38 165.05 30.87Q165.05 31.36 167.29 31.36L167.29 31.36L170.86 31.36Q178.81 31.36 178.81 37.06L178.81 37.06Q178.81 40.15 176.41 41.95Q174.01 43.75 168.94 43.75L168.94 43.75Q160.29 43.75 160.29 40.01L160.29 40.01Q160.29 37.98 162.99 37.20L162.99 37.20L165.09 38.15Q164.81 39.16 164.81 40.08L164.81 40.08Q164.81 43.09 169.29 43.09L169.29 43.09Q172.02 43.09 173.49 42.07Q174.96 41.05 174.96 39.55Q174.96 38.05 174.06 37.54Q173.17 37.03 170.51 37.03L170.51 37.03L167.12 37.03Q164.28 37.03 163.06 36.09Q161.83 35.14 161.83 33.76Q161.83 32.38 162.71 31.45Q163.58 30.52 165.82 29.16L165.82 29.16Q161.76 28 161.76 23.84L161.76 23.84Q161.76 21.21 163.65 19.60Q165.54 17.99 169.32 17.99L169.32 17.99Q171.60 17.99 173.21 18.86L173.21 18.86Q173.00 17.92 173.00 17.15L173.00 17.15Q173.00 15.19 174.05 14.31Q175.10 13.44 176.39 13.44Q177.69 13.44 178.47 14.12Q179.26 14.80 179.26 15.99Q179.26 17.18 178.63 17.76Q178.00 18.34 177.11 18.34Q176.22 18.34 175.64 17.87Q175.06 17.39 175.03 16.52ZM167.61 23.06L167.61 23.06L167.61 24.95Q167.61 27.30 168.01 28.14Q168.41 28.98 169.23 28.98Q170.06 28.98 170.42 28.16Q170.79 27.34 170.79 24.78L170.79 24.78L170.79 23.06Q170.79 20.34 170.44 19.48Q170.09 18.62 169.27 18.62Q168.45 18.62 168.03 19.51Q167.61 20.41 167.61 23.06ZM187.42 35.35Q182.90 35.35 180.64 33.02Q178.39 30.70 178.39 26.55Q178.39 22.40 180.92 20.20Q183.46 17.99 187.38 17.99L187.38 17.99Q195.33 17.99 195.01 25.97L195.01 25.97L185.14 25.97L185.14 27.34Q185.14 30.77 186.02 32.52Q186.89 34.27 189.06 34.27L189.06 34.27Q193.12 34.27 194.38 29.93L194.38 29.93L195.01 30.03Q194.35 32.55 192.61 33.95Q190.88 35.35 187.42 35.35L187.42 35.35ZM185.18 23.55L185.18 25.27L188.78 25.27L188.78 23.55Q188.78 20.72 188.45 19.69Q188.12 18.65 187.12 18.65Q186.12 18.65 185.65 19.76Q185.18 20.86 185.18 23.55L185.18 23.55ZM196.34 18.97L196.34 18.34L204.78 18.34L204.78 21.56Q205.34 19.95 206.49 18.97Q207.65 17.99 209.99 17.99L209.99 17.99Q215.42 17.99 215.42 23.84L215.42 23.84L215.42 34.37L217.38 34.37L217.38 35L207.47 35L207.47 34.37L208.91 34.37L208.91 22.99Q208.91 20.89 208.63 20.28Q208.35 19.67 207.61 19.67L207.61 19.67Q206.49 19.67 205.63 21.14Q204.78 22.61 204.78 24.71L204.78 24.71L204.78 34.37L206.28 34.37L206.28 35L196.34 35L196.34 34.37L198.27 34.37L198.27 18.97L196.34 18.97ZM219.41 29.99L219.41 29.99L219.41 18.97L217.48 18.97L217.48 18.34L219.41 18.34L219.41 13.82L225.92 12.21L225.92 18.34L230.47 18.34L230.47 18.97L225.92 18.97L225.92 30.77Q225.92 32.41 226.25 33.18Q226.58 33.95 227.63 33.95Q228.68 33.95 229.47 32.90Q230.25 31.85 230.50 30.03L230.50 30.03L231.09 30.10Q230.81 32.52 229.56 33.93Q228.30 35.35 225.39 35.35Q222.49 35.35 220.94 34.20Q219.41 33.04 219.41 29.99Z"/></g>
        
      </svg>
    